<svg class="gois-mascot" viewBox="0 0 48 48" width="48" height="48" xmlns="http://www.w3.org/2000/svg" role="img" aria-label="Gois">
  <ellipse cx="24" cy="30" rx="13" ry="10" fill="#E85A4F"/>
  <ellipse cx="24" cy="29" rx="10" ry="7.5" fill="#FF8A7A"/>
  <path d="M11 31l-4 4M13 33l-3 5M35 31l4 4M33 33l3 5" stroke="#C94A40" stroke-width="2" stroke-linecap="round"/>
  <path d="M7 26c-2-3-1-7 3-8 2 3 1 6-1 8" fill="#E85A4F" stroke="#C94A40" stroke-width="1.2"/>
  <path d="M12 16 Q24 6 36 16 L34 20 Q24 14 14 20 Z" fill="#A6712A"/>
  <path d="M12 18 Q24 10 36 18" stroke="#7A5219" stroke-width="1.2" fill="none"/>
  <ellipse cx="13" cy="19" rx="2.8" ry="4.5" fill="#8B5E2B"/>
  <ellipse cx="35" cy="19" rx="2.8" ry="4.5" fill="#8B5E2B"/>
  <path d="M16 24 Q24 28 32 24" stroke="#C0392B" stroke-width="2.2" fill="none" stroke-linecap="round"/>
  <circle cx="20" cy="23" r="2.1" fill="#15171c"/>
  <circle cx="28" cy="23" r="2.1" fill="#15171c"/>
  <circle cx="20.6" cy="22.4" r=".7" fill="#fff"/>
  <circle cx="28.6" cy="22.4" r=".7" fill="#fff"/>
  <rect x="33" y="21" width="9" height="4.5" rx="1.2" fill="#8A93A6"/>
  <rect x="40" y="19" width="3.5" height="9" rx="1" fill="#6AA9FF"/>
  <circle cx="41.8" cy="23.5" r="1" fill="#3ddc84"/>
  <path d="M42 28l4 3M42 28l4-3M42 28l5 0" stroke="#9AA5B8" stroke-width="2" stroke-linecap="round"/>
  <path d="M46 28l2 2M46 28l2-2" stroke="#6AA9FF" stroke-width="1.5" stroke-linecap="round"/>
</svg>