<svg viewBox="0 0 128 128" xmlns="http://www.w3.org/2000/svg" role="img" aria-label="Gois Lite">
  <defs>
    <linearGradient id="bg" x1="0%" y1="0%" x2="100%" y2="100%">
      <stop offset="0%" stop-color="#121820"/>
      <stop offset="100%" stop-color="#0a0e14"/>
    </linearGradient>
    <linearGradient id="shell" x1="0%" y1="0%" x2="0%" y2="100%">
      <stop offset="0%" stop-color="#7EC8F0"/>
      <stop offset="100%" stop-color="#4A9FD4"/>
    </linearGradient>
  </defs>
  <rect x="4" y="4" width="120" height="120" rx="28" fill="url(#bg)" stroke="#2a3544" stroke-width="2"/>
  <g transform="translate(16 14) scale(2)">
    <ellipse cx="24" cy="30" rx="13" ry="10" fill="#4A9FD4"/>
    <ellipse cx="24" cy="29" rx="10" ry="7.5" fill="url(#shell)"/>
    <path d="M11 31l-4 4M13 33l-3 5M35 31l4 4M33 33l3 5" stroke="#2E7BA8" stroke-width="2" stroke-linecap="round"/>
    <path d="M7 26c-2-3-1-7 3-8 2 3 1 6-1 8" fill="#4A9FD4" stroke="#2E7BA8" stroke-width="1.2"/>
    <path d="M12 16 Q24 6 36 16 L34 20 Q24 14 14 20 Z" fill="#6B8E4E"/>
    <path d="M12 18 Q24 10 36 18" stroke="#4d6b38" stroke-width="1.2" fill="none"/>
    <ellipse cx="13" cy="19" rx="2.8" ry="4.5" fill="#5a7d42"/>
    <ellipse cx="35" cy="19" rx="2.8" ry="4.5" fill="#5a7d42"/>
    <path d="M16 24 Q24 28 32 24" stroke="#2E7BA8" stroke-width="2" fill="none" stroke-linecap="round"/>
    <circle cx="20" cy="23" r="2.1" fill="#15171c"/>
    <circle cx="28" cy="23" r="2.1" fill="#15171c"/>
    <circle cx="20.6" cy="22.4" r=".7" fill="#fff"/>
    <circle cx="28.6" cy="22.4" r=".7" fill="#fff"/>
    <rect x="33" y="21" width="9" height="4.5" rx="1.2" fill="#8A93A6"/>
    <rect x="40" y="19" width="3.5" height="9" rx="1" fill="#6AA9FF"/>
    <circle cx="41.8" cy="23.5" r="1" fill="#3ddc84"/>
    <path d="M42 28l4 3M42 28l4-3M42 28l5 0" stroke="#9AA5B8" stroke-width="2" stroke-linecap="round"/>
    <path d="M46 28l2 2M46 28l2-2" stroke="#6AA9FF" stroke-width="1.5" stroke-linecap="round"/>
  </g>
  <rect x="24" y="94" width="80" height="22" rx="6" fill="#1a2332" stroke="#6AA9FF" stroke-width="1.5"/>
  <text x="64" y="109.5" text-anchor="middle" font-family="system-ui, -apple-system, Segoe UI, Helvetica, Arial, sans-serif" font-size="13" font-weight="700" letter-spacing="2" fill="#6AA9FF">LITE</text>
</svg>
